<?xml version="1.0" standalone="no"?>
<!DOCTYPE svg PUBLIC "-//W3C//DTD SVG 20010904//EN"
 "http://www.w3.org/TR/2001/REC-SVG-20010904/DTD/svg10.dtd">
<svg version="1.0" xmlns="http://www.w3.org/2000/svg"
 width="200.000000pt" height="200.000000pt" viewBox="0 0 200.000000 200.000000"
 preserveAspectRatio="xMidYMid meet">
<metadata>
Created by potrace 1.14, written by Peter Selinger 2001-2017
</metadata>
<g transform="translate(0.000000,200.000000) scale(0.100000,-0.100000)"
fill="#000000" stroke="none">
<path d="M887 1810 c-51 -13 -87 -33 -116 -64 -14 -14 -32 -26 -42 -26 -46 0
-109 -86 -109 -150 0 -71 58 -140 117 -140 19 0 25 -10 39 -56 9 -33 14 -75
11 -100 l-5 -44 52 -16 c28 -8 98 -17 156 -19 l105 -4 -82 9 c-45 6 -106 18
-135 27 l-53 18 -6 75 c-3 41 -9 86 -13 100 -5 19 -2 30 11 43 17 15 23 15 68
1 34 -10 69 -14 108 -10 90 9 94 21 8 21 -64 0 -85 4 -129 27 -44 23 -54 25
-59 12 -8 -22 -62 -46 -89 -40 -34 9 -57 60 -51 110 7 49 48 90 81 82 16 -4
29 4 50 30 37 47 80 64 158 64 78 0 134 -24 176 -76 29 -35 33 -37 49 -22 44
39 91 30 118 -22 20 -40 19 -79 -5 -118 -25 -41 -63 -56 -102 -43 -38 13 -43
1 -43 -111 l0 -88 -50 -10 c-27 -5 -72 -11 -100 -13 -27 -2 -7 -4 45 -5 52 -1
105 1 118 4 21 6 23 10 17 58 -4 31 -1 68 7 96 13 41 17 45 51 51 87 14 133
116 92 203 -22 46 -67 70 -120 63 -36 -5 -46 -3 -65 18 -49 52 -181 85 -263
65z"/>
<path d="M276 1400 c13 -71 45 -123 126 -207 69 -70 87 -84 110 -81 23 2 41
-10 98 -67 55 -55 72 -67 82 -57 10 10 -32 57 -205 230 -198 198 -217 214
-211 182z"/>
<path d="M1613 1409 c-23 -11 -60 -41 -83 -65 -36 -39 -41 -50 -39 -85 3 -38
0 -43 -106 -149 -77 -77 -106 -113 -99 -120 8 -8 45 22 125 99 105 100 116
109 145 104 27 -5 39 1 78 37 55 51 101 138 92 175 -5 20 -13 25 -39 25 -17 0
-51 -9 -74 -21z"/>
<path d="M1752 1245 c-74 -68 -108 -123 -98 -158 4 -18 -16 -44 -106 -134 -89
-89 -110 -115 -100 -125 10 -10 36 11 125 100 82 82 118 111 130 107 34 -14
86 16 156 91 66 69 83 94 63 94 -4 0 -37 -29 -72 -65 -35 -36 -69 -65 -74 -65
-6 0 21 31 59 70 38 38 67 72 64 74 -3 3 -34 -24 -69 -59 -36 -36 -69 -65 -74
-65 -6 0 21 31 59 70 38 38 66 73 62 77 -4 4 -39 -24 -77 -62 -39 -38 -70 -65
-70 -59 0 5 29 38 65 74 35 35 62 66 59 69 -2 3 -36 -26 -74 -64 -39 -38 -70
-65 -70 -59 0 5 29 39 65 74 36 35 65 68 65 72 0 18 -22 4 -88 -57z"/>
<path d="M140 1283 c-50 -19 -76 -70 -60 -119 15 -46 53 -68 104 -61 l41 6
147 -147 c117 -116 150 -144 160 -134 10 10 -18 43 -134 160 l-147 147 6 46
c4 38 1 50 -18 72 -24 27 -71 41 -99 30z"/>
<path d="M815 1140 c-67 -35 -98 -37 -144 -9 l-33 20 22 -31 c27 -38 88 -70
133 -70 18 0 66 11 105 25 39 14 79 25 88 25 8 0 50 -12 91 -26 54 -19 89 -25
119 -21 46 5 105 42 124 78 11 19 10 19 -22 -1 -46 -28 -75 -25 -147 12 -60
31 -64 31 -116 21 -36 -8 -65 -9 -87 -2 -51 14 -72 11 -133 -21z"/>
<path d="M890 1014 c-119 -32 -217 -116 -274 -234 -29 -61 -31 -73 -31 -175 0
-103 2 -114 32 -177 44 -93 110 -160 199 -204 130 -65 292 -57 412 20 61 39
121 107 155 176 31 62 32 70 32 185 0 109 -2 125 -27 178 -87 185 -300 284
-498 231z m-169 -268 c-9 -10 -1 -39 32 -126 l44 -113 26 67 26 68 -25 55
c-13 31 -24 57 -24 59 0 2 19 4 43 3 23 0 36 -3 30 -6 -20 -7 -16 -24 29 -140
l41 -107 20 52 c11 29 22 51 24 49 8 -9 -41 -119 -57 -127 -15 -8 -22 1 -46
65 -16 41 -31 71 -35 67 -3 -4 -14 -29 -24 -57 -18 -50 -41 -85 -57 -85 -4 0
-8 4 -8 10 0 5 -24 71 -53 145 l-54 135 40 0 c32 0 37 -3 28 -14z m325 -8 c-7
-13 -22 -44 -31 -71 -10 -26 -20 -46 -22 -44 -2 2 6 30 18 61 19 49 20 59 8
67 -10 6 -7 9 14 9 26 0 27 -1 13 -22z m263 -2 c34 -31 28 -79 -14 -114 l-35
-29 35 -46 c19 -25 43 -51 53 -56 14 -8 10 -10 -19 -11 -32 0 -39 5 -74 55
-31 45 -43 55 -66 55 -28 0 -29 -2 -29 -49 0 -30 5 -51 13 -54 6 -3 -8 -6 -32
-6 -35 -1 -42 2 -33 11 17 17 17 239 0 257 -11 10 5 12 83 9 78 -2 101 -7 118
-22z"/>
<path d="M1160 680 l0 -69 37 -7 c58 -11 87 11 91 68 3 39 -1 49 -20 62 -12 9
-42 16 -65 16 l-43 0 0 -70z"/>
</g>
</svg>
